<svg xmlns="http://www.w3.org/2000/svg" xmlns:xlink="http://www.w3.org/1999/xlink" width="300" zoomAndPan="magnify" viewBox="120 50 575 274.999991" height="100" preserveAspectRatio="xMidYMid meet" version="1.0"><defs><g/></defs><g fill="#ff00ff" fill-opacity="1"><g transform="translate(20.372271, 224.746689)"><g><path d="M 11.910156 -40.632812 L 28.722656 -40.632812 L 28.722656 -28.722656 L 37.132812 -28.722656 L 37.132812 -40.632812 L 28.722656 -40.632812 L 28.722656 -49.042969 L 3.503906 -49.042969 L 3.503906 0 L 11.910156 0 L 11.910156 -20.316406 L 28.722656 -20.316406 L 28.722656 -28.722656 L 11.910156 -28.722656 Z M 11.910156 -40.632812 "/></g></g></g><g fill="#ff00ff" fill-opacity="1"><g transform="translate(68.4298, 224.746689)"><g><path d="M 11.910156 -40.632812 L 28.722656 -40.632812 L 28.722656 -28.722656 L 11.910156 -28.722656 L 11.910156 -40.632812 L 3.503906 -40.632812 L 3.503906 0 L 11.910156 0 L 11.910156 -20.316406 L 28.722656 -20.316406 L 28.722656 0 L 37.132812 0 L 37.132812 -40.632812 L 28.722656 -40.632812 L 28.722656 -49.042969 L 11.910156 -49.042969 Z M 11.910156 -40.632812 "/></g></g></g><g fill="#ff00ff" fill-opacity="1"><g transform="translate(116.48733, 224.746689)"><g><path d="M 3.503906 -49.042969 L 3.503906 -36.921875 L 11.910156 -36.921875 L 11.910156 -28.515625 L 20.316406 -28.515625 L 20.316406 0 L 28.722656 0 L 28.722656 -28.515625 L 20.316406 -28.515625 L 20.316406 -36.921875 L 11.910156 -36.921875 L 11.910156 -49.042969 Z M 45.539062 -36.921875 L 45.539062 -49.042969 L 37.132812 -49.042969 L 37.132812 -36.921875 Z M 37.132812 -28.515625 L 37.132812 -36.921875 L 28.722656 -36.921875 L 28.722656 -28.515625 Z M 37.132812 -28.515625 "/></g></g></g><g fill="#ff00ff" fill-opacity="1"><g transform="translate(172.951256, 224.746689)"><g><path d="M 3.503906 -49.042969 L 3.503906 0 L 11.910156 0 L 11.910156 -32.226562 L 20.316406 -32.226562 L 20.316406 -23.820312 L 28.722656 -23.820312 L 28.722656 -15.414062 L 37.132812 -15.414062 L 37.132812 0 L 45.539062 0 L 45.539062 -49.042969 L 37.132812 -49.042969 L 37.132812 -23.820312 L 28.722656 -23.820312 L 28.722656 -32.226562 L 20.316406 -32.226562 L 20.316406 -40.632812 L 11.910156 -40.632812 L 11.910156 -49.042969 Z M 3.503906 -49.042969 "/></g></g></g><g fill="#ff00ff" fill-opacity="1"><g transform="translate(229.415173, 224.746689)"><g><path d="M 11.910156 -40.632812 L 28.722656 -40.632812 L 28.722656 -28.722656 L 11.910156 -28.722656 L 11.910156 -40.632812 L 3.503906 -40.632812 L 3.503906 0 L 11.910156 0 L 11.910156 -20.316406 L 28.722656 -20.316406 L 28.722656 0 L 37.132812 0 L 37.132812 -40.632812 L 28.722656 -40.632812 L 28.722656 -49.042969 L 11.910156 -49.042969 Z M 11.910156 -40.632812 "/></g></g></g><g fill="#ff00ff" fill-opacity="1"><g transform="translate(277.472699, 224.746689)"><g><path d="M 3.503906 -49.042969 L 3.503906 0 L 11.910156 0 L 11.910156 -32.226562 L 20.316406 -32.226562 L 20.316406 -23.820312 L 28.722656 -23.820312 L 28.722656 -15.414062 L 37.132812 -15.414062 L 37.132812 0 L 45.539062 0 L 45.539062 -49.042969 L 37.132812 -49.042969 L 37.132812 -23.820312 L 28.722656 -23.820312 L 28.722656 -32.226562 L 20.316406 -32.226562 L 20.316406 -40.632812 L 11.910156 -40.632812 L 11.910156 -49.042969 Z M 3.503906 -49.042969 "/></g></g></g><g fill="#ff00ff" fill-opacity="1"><g transform="translate(333.936615, 224.746689)"><g><path d="M 3.503906 0 L 11.910156 0 L 11.910156 -49.042969 L 3.503906 -49.042969 Z M 3.503906 0 "/></g></g></g><g fill="#00ffff" fill-opacity="1"><g transform="translate(25.640837, 226.060302)"><g><path d="M 11.910156 -40.632812 L 28.722656 -40.632812 L 28.722656 -28.722656 L 37.132812 -28.722656 L 37.132812 -40.632812 L 28.722656 -40.632812 L 28.722656 -49.042969 L 3.503906 -49.042969 L 3.503906 0 L 11.910156 0 L 11.910156 -20.316406 L 28.722656 -20.316406 L 28.722656 -28.722656 L 11.910156 -28.722656 Z M 11.910156 -40.632812 "/></g></g></g><g fill="#00ffff" fill-opacity="1"><g transform="translate(73.698367, 226.060302)"><g><path d="M 11.910156 -40.632812 L 28.722656 -40.632812 L 28.722656 -28.722656 L 11.910156 -28.722656 L 11.910156 -40.632812 L 3.503906 -40.632812 L 3.503906 0 L 11.910156 0 L 11.910156 -20.316406 L 28.722656 -20.316406 L 28.722656 0 L 37.132812 0 L 37.132812 -40.632812 L 28.722656 -40.632812 L 28.722656 -49.042969 L 11.910156 -49.042969 Z M 11.910156 -40.632812 "/></g></g></g><g fill="#00ffff" fill-opacity="1"><g transform="translate(121.755897, 226.060302)"><g><path d="M 3.503906 -49.042969 L 3.503906 -36.921875 L 11.910156 -36.921875 L 11.910156 -28.515625 L 20.316406 -28.515625 L 20.316406 0 L 28.722656 0 L 28.722656 -28.515625 L 20.316406 -28.515625 L 20.316406 -36.921875 L 11.910156 -36.921875 L 11.910156 -49.042969 Z M 45.539062 -36.921875 L 45.539062 -49.042969 L 37.132812 -49.042969 L 37.132812 -36.921875 Z M 37.132812 -28.515625 L 37.132812 -36.921875 L 28.722656 -36.921875 L 28.722656 -28.515625 Z M 37.132812 -28.515625 "/></g></g></g><g fill="#00ffff" fill-opacity="1"><g transform="translate(178.219823, 226.060302)"><g><path d="M 3.503906 -49.042969 L 3.503906 0 L 11.910156 0 L 11.910156 -32.226562 L 20.316406 -32.226562 L 20.316406 -23.820312 L 28.722656 -23.820312 L 28.722656 -15.414062 L 37.132812 -15.414062 L 37.132812 0 L 45.539062 0 L 45.539062 -49.042969 L 37.132812 -49.042969 L 37.132812 -23.820312 L 28.722656 -23.820312 L 28.722656 -32.226562 L 20.316406 -32.226562 L 20.316406 -40.632812 L 11.910156 -40.632812 L 11.910156 -49.042969 Z M 3.503906 -49.042969 "/></g></g></g><g fill="#00ffff" fill-opacity="1"><g transform="translate(234.68374, 226.060302)"><g><path d="M 11.910156 -40.632812 L 28.722656 -40.632812 L 28.722656 -28.722656 L 11.910156 -28.722656 L 11.910156 -40.632812 L 3.503906 -40.632812 L 3.503906 0 L 11.910156 0 L 11.910156 -20.316406 L 28.722656 -20.316406 L 28.722656 0 L 37.132812 0 L 37.132812 -40.632812 L 28.722656 -40.632812 L 28.722656 -49.042969 L 11.910156 -49.042969 Z M 11.910156 -40.632812 "/></g></g></g><g fill="#00ffff" fill-opacity="1"><g transform="translate(282.741265, 226.060302)"><g><path d="M 3.503906 -49.042969 L 3.503906 0 L 11.910156 0 L 11.910156 -32.226562 L 20.316406 -32.226562 L 20.316406 -23.820312 L 28.722656 -23.820312 L 28.722656 -15.414062 L 37.132812 -15.414062 L 37.132812 0 L 45.539062 0 L 45.539062 -49.042969 L 37.132812 -49.042969 L 37.132812 -23.820312 L 28.722656 -23.820312 L 28.722656 -32.226562 L 20.316406 -32.226562 L 20.316406 -40.632812 L 11.910156 -40.632812 L 11.910156 -49.042969 Z M 3.503906 -49.042969 "/></g></g></g><g fill="#00ffff" fill-opacity="1"><g transform="translate(339.205182, 226.060302)"><g><path d="M 3.503906 0 L 11.910156 0 L 11.910156 -49.042969 L 3.503906 -49.042969 Z M 3.503906 0 "/></g></g></g><g fill="#ff1616" fill-opacity="1"><g transform="translate(23.006554, 225.403494)"><g><path d="M 11.910156 -40.632812 L 28.722656 -40.632812 L 28.722656 -28.722656 L 37.132812 -28.722656 L 37.132812 -40.632812 L 28.722656 -40.632812 L 28.722656 -49.042969 L 3.503906 -49.042969 L 3.503906 0 L 11.910156 0 L 11.910156 -20.316406 L 28.722656 -20.316406 L 28.722656 -28.722656 L 11.910156 -28.722656 Z M 11.910156 -40.632812 "/></g></g></g><g fill="#ff1616" fill-opacity="1"><g transform="translate(71.064084, 225.403494)"><g><path d="M 11.910156 -40.632812 L 28.722656 -40.632812 L 28.722656 -28.722656 L 11.910156 -28.722656 L 11.910156 -40.632812 L 3.503906 -40.632812 L 3.503906 0 L 11.910156 0 L 11.910156 -20.316406 L 28.722656 -20.316406 L 28.722656 0 L 37.132812 0 L 37.132812 -40.632812 L 28.722656 -40.632812 L 28.722656 -49.042969 L 11.910156 -49.042969 Z M 11.910156 -40.632812 "/></g></g></g><g fill="#ff1616" fill-opacity="1"><g transform="translate(119.121613, 225.403494)"><g><path d="M 3.503906 -49.042969 L 3.503906 -36.921875 L 11.910156 -36.921875 L 11.910156 -28.515625 L 20.316406 -28.515625 L 20.316406 0 L 28.722656 0 L 28.722656 -28.515625 L 20.316406 -28.515625 L 20.316406 -36.921875 L 11.910156 -36.921875 L 11.910156 -49.042969 Z M 45.539062 -36.921875 L 45.539062 -49.042969 L 37.132812 -49.042969 L 37.132812 -36.921875 Z M 37.132812 -28.515625 L 37.132812 -36.921875 L 28.722656 -36.921875 L 28.722656 -28.515625 Z M 37.132812 -28.515625 "/></g></g></g><g fill="#ff1616" fill-opacity="1"><g transform="translate(175.58554, 225.403494)"><g><path d="M 3.503906 -49.042969 L 3.503906 0 L 11.910156 0 L 11.910156 -32.226562 L 20.316406 -32.226562 L 20.316406 -23.820312 L 28.722656 -23.820312 L 28.722656 -15.414062 L 37.132812 -15.414062 L 37.132812 0 L 45.539062 0 L 45.539062 -49.042969 L 37.132812 -49.042969 L 37.132812 -23.820312 L 28.722656 -23.820312 L 28.722656 -32.226562 L 20.316406 -32.226562 L 20.316406 -40.632812 L 11.910156 -40.632812 L 11.910156 -49.042969 Z M 3.503906 -49.042969 "/></g></g></g><g fill="#ff1616" fill-opacity="1"><g transform="translate(232.049457, 225.403494)"><g><path d="M 11.910156 -40.632812 L 28.722656 -40.632812 L 28.722656 -28.722656 L 11.910156 -28.722656 L 11.910156 -40.632812 L 3.503906 -40.632812 L 3.503906 0 L 11.910156 0 L 11.910156 -20.316406 L 28.722656 -20.316406 L 28.722656 0 L 37.132812 0 L 37.132812 -40.632812 L 28.722656 -40.632812 L 28.722656 -49.042969 L 11.910156 -49.042969 Z M 11.910156 -40.632812 "/></g></g></g><g fill="#ff1616" fill-opacity="1"><g transform="translate(280.106982, 225.403494)"><g><path d="M 3.503906 -49.042969 L 3.503906 0 L 11.910156 0 L 11.910156 -32.226562 L 20.316406 -32.226562 L 20.316406 -23.820312 L 28.722656 -23.820312 L 28.722656 -15.414062 L 37.132812 -15.414062 L 37.132812 0 L 45.539062 0 L 45.539062 -49.042969 L 37.132812 -49.042969 L 37.132812 -23.820312 L 28.722656 -23.820312 L 28.722656 -32.226562 L 20.316406 -32.226562 L 20.316406 -40.632812 L 11.910156 -40.632812 L 11.910156 -49.042969 Z M 3.503906 -49.042969 "/></g></g></g><g fill="#ff1616" fill-opacity="1"><g transform="translate(336.570899, 225.403494)"><g><path d="M 3.503906 0 L 11.910156 0 L 11.910156 -49.042969 L 3.503906 -49.042969 Z M 3.503906 0 "/></g></g></g><g fill="#ff00ff" fill-opacity="1"><g transform="translate(187.755861, 225.035819)"><g/></g></g><g fill="#00ffff" fill-opacity="1"><g transform="translate(194.723962, 226.773153)"><g/></g></g><g fill="#3b1b72" fill-opacity="1"><g transform="translate(191.239912, 225.904487)"><g/></g></g></svg>